<?xml version="1.0" standalone="no"?>
<!DOCTYPE svg PUBLIC "-//W3C//DTD SVG 1.1//EN" "http://www.w3.org/Graphics/SVG/1.1/DTD/svg11.dtd" >
<svg xmlns="http://www.w3.org/2000/svg">
<metadata>
Created by FontForge 20120731 at Wed Mar 23 11:05:35 2016
 By Ads
</metadata>
<defs>
<font id="iconfont" horiz-adv-x="1024" >
  <font-face 
    font-family="iconfont"
    font-weight="500"
    font-stretch="normal"
    units-per-em="1024"
    panose-1="2 0 6 3 0 0 0 0 0 0"
    ascent="896"
    descent="-128"
    x-height="792"
    bbox="0 -224 1024 896"
    underline-thickness="50"
    underline-position="-100"
    unicode-range="U+0078-E61D"
  />
<missing-glyph horiz-adv-x="374" 
d="M34 0v682h272v-682h-272zM68 34h204v614h-204v-614z" />
    <glyph glyph-name=".notdef" horiz-adv-x="374" 
d="M34 0v682h272v-682h-272zM68 34h204v614h-204v-614z" />
    <glyph glyph-name=".null" horiz-adv-x="0" 
 />
    <glyph glyph-name="nonmarkingreturn" horiz-adv-x="341" 
 />
    <glyph glyph-name="x" unicode="x" horiz-adv-x="1001" 
d="M281 543q-27 -1 -53 -1h-83q-18 0 -36.5 -6t-32.5 -18.5t-23 -32t-9 -45.5v-76h912v41q0 16 -0.5 30t-0.5 18q0 13 -5 29t-17 29.5t-31.5 22.5t-49.5 9h-133v-97h-438v97zM955 310v-52q0 -23 0.5 -52t0.5 -58t-10.5 -47.5t-26 -30t-33 -16t-31.5 -4.5q-14 -1 -29.5 -0.5
t-29.5 0.5h-32l-45 128h-439l-44 -128h-29h-34q-20 0 -45 1q-25 0 -41 9.5t-25.5 23t-13.5 29.5t-4 30v167h911zM163 247q-12 0 -21 -8.5t-9 -21.5t9 -21.5t21 -8.5q13 0 22 8.5t9 21.5t-9 21.5t-22 8.5zM316 123q-8 -26 -14 -48q-5 -19 -10.5 -37t-7.5 -25t-3 -15t1 -14.5
t9.5 -10.5t21.5 -4h37h67h81h80h64h36q23 0 34 12t2 38q-5 13 -9.5 30.5t-9.5 34.5q-5 19 -11 39h-368zM336 498v228q0 11 2.5 23t10 21.5t20.5 15.5t34 6h188q31 0 51.5 -14.5t20.5 -52.5v-227h-327z" />
    <glyph glyph-name="uniE600" unicode="&#xe600;" 
d="M750 582h-27l-275 191h-83l-275 -191h-28v-55h688v55zM406.5 582q-28.5 0 -49 20t-20.5 48t20.5 48t49 20t48.5 -20t20 -48t-20 -48t-48.5 -20zM650 499h-65v-34q30 23 65 34zM530 445h28v54h-138v-54h28v-219h46q-5 24 -5 49q0 73 41 133v37zM726.5 465
q-78.5 0 -134 -56t-55.5 -134v-5v-1v-3v-2v-3v-1q1 -2 1 -3v-1v-1v-3v-1q1 -3 1 -5v-1q0 -2 1 -3v-2q0 -1 1 -3v-1q0 -1 1 -2v-2q0 -2 1 -3v-1v-1q0 -2 1 -4v-1q1 -1 1 -3l1 -1q0 -2 1 -3v-2q1 -1 1 -2q0 -2 1 -2q0 -1 1 -3v-1q1 -2 2 -3v-1q1 -2 1 -4q1 0 1 -1q1 -2 1 -3
q1 0 1 -1q1 -2 1 -3q1 0 1 -1t1 -3l1 -1q1 -1 2 -3v-1q1 -1 2 -3v-1h1q1 -2 1 -3q1 0 1 -1q1 -1 2 -3l1 -1q0 -1 1 -2l1 -1q1 -1 2 -3l1 -1q2 -3 5 -7q1 0 1 -1l2 -2l1 -1l2 -2q0 -1 1 -1q0 -1 2 -2v-1h1q1 -1 2 -3v0q2 -2 4 -3v-1q2 -1 3 -2l1 -1l2 -2q0 -1 1 -1l2 -2l1 -1
q1 -1 3 -2h1q1 -2 3 -3v0l3 -3h2l2 -2l1 -1q1 -1 3 -1q0 -1 1 -1l2 -2h1l1 -1q1 0 3 -1v-1l4 -2h1q2 -1 3 -2h1q1 -1 3 -2h1q1 -1 3 -2h1q1 -1 3 -1v-1h1l4 -2h1q1 -1 3 -1l1 -1q2 0 3 -1h2q1 -1 2 -1h2q1 -1 3 -1l1 -1q2 0 4 -1v-29h-107v-72h309v72h-107v29q2 1 4 1
q1 1 2 1t2 1h2q1 0 3 1h1q1 1 3 1l1 1q2 0 3 1h1l4 2h1q2 1 3 2h2l2 2h2l2 2h1q2 1 3 2h1l4 2v1q2 1 4 1l1 1l2 2q1 0 2 1q1 0 2 1l1 1q1 1 3 2h1l3 3v0q2 1 3 3h1q2 1 3 2l1 1l2 2l1 1l2 2q1 1 2 1q0 1 2 2v1h1l3 3v0q1 2 3 3l1 1l2 2l1 1q0 1 1 2l1 1l2 2v1h1q2 2 3 4
q1 1 2 3q1 0 1 1q1 1 2 3l1 1l2 2v1q1 1 2 3l1 1q0 1 1 3l1 1q1 1 2 3q0 1 1 1q0 2 1 3l1 1q1 2 1 3l1 1q1 2 1 3l1 1q0 1 1 3l1 1q1 2 1 4h1v1t1 3l1 1q0 2 1 3v2q1 1 1 2t1 2v2l1 2q0 2 1 3v1q1 2 1 4v1q1 0 1 1v3l1 1v3q0 1 1 1v3v2q1 1 1 3v1q0 2 1 5v1v3v2q1 1 1 3v1v3
v2v3v1v5q0 78 -55.5 134t-134 56zM695 453h63q7 0 11.5 -3.5t4.5 -8.5t-4.5 -8.5t-11.5 -3.5h-63q-7 0 -11.5 3.5t-4.5 8.5t4.5 8.5t11.5 3.5zM726.5 168q-44.5 0 -75.5 31.5t-31 75.5t31 75.5t75.5 31.5t75.5 -31.5t31 -75.5t-31 -75.5t-75.5 -31.5zM727 322h-7
q8 -2 13 -8.5t5 -14.5q0 -10 -6.5 -17t-16.5 -7t-17 7t-7 17q0 5 2 10q-14 -14 -14 -34t14 -34t33.5 -14t33.5 14t14 34t-14 33.5t-33 13.5zM502 198h-385v-54h-55v-82h560q-42 20 -73.5 56t-46.5 80zM365 226v219h27v54h-137v-54h27v-219h83zM200 226v219h27v54h-137v-54
h27v-219h83z" />
    <glyph glyph-name="uniE601" unicode="&#xe601;" 
d="M200 438l194 -52q4 -1 7 -1q21 0 27 20q3 12 -3 21.5t-17 12.5l-194 52q-11 3 -21 -2.5t-13 -16.5t2.5 -21t17.5 -13zM200 160l194 -52q3 -1 7 -1q21 0 27 21q3 11 -3 21t-17 13l-194 52q-11 3 -21 -2.5t-13 -17t2.5 -21.5t17.5 -13zM200 299l194 -52q3 -1 7 -1
q21 0 27 21q3 11 -3 21t-17 13l-194 52q-11 3 -21 -3t-13 -17t2.5 -21t17.5 -13zM596 267q6 -21 27 -21q4 0 7 1l194 52q11 3 17 13t3 21t-13 17t-21 3l-194 -52q-11 -3 -17 -13t-3 -21zM643 -25l-103 -28v609l360 96v-368h5h5q21 0 46 -3v408q0 13 -11 22q-11 8 -24 4
l-409 -109l-409 109q-13 4 -24 -4q-11 -9 -11 -22v-666q0 -22 21 -27l416 -111q3 -1 7 -1t7 1l134 36q-7 26 -10 54zM484 -53l-360 97v608l360 -96v-609zM623 385q3 0 7 1l194 52q11 3 17 13t3 21t-13 17t-21 3l-194 -53q-11 -3 -17 -12.5t-3 -21.5q3 -9 10.5 -14.5
t16.5 -5.5zM956 138q0 5 -3 8t-8 3h-16q-13 0 -16 12l-9 20q-6 11 3 20l12 11q3 4 3 8q0 5 -3 8l-20 19q-3 4 -7.5 4t-7.5 -4l-12 -11q-9 -9 -19 -3l-21 8q-12 4 -12 16v17q0 4 -3 7.5t-8 3.5h-28q-4 0 -7 -3.5t-3 -7.5v-17q0 -12 -12 -16l-21 -8q-11 -6 -19 3l-12 11
q-3 3 -7.5 3t-7.5 -3l-20 -19q-3 -4 -3 -8t3 -8l12 -11q8 -9 3 -20l-9 -21q-4 -11 -16 -11h-16q-5 0 -8 -3.5t-3 -7.5v-28q0 -4 3 -7.5t8 -3.5h16q12 0 16 -12l9 -20q5 -11 -3 -20l-12 -11q-3 -4 -3 -8t3 -8l20 -19q3 -4 7 -4q5 0 8 4l12 11q8 9 19 3l21 -8q12 -4 12 -16
v-17q0 -4 3 -7.5t7 -3.5h28q5 0 8 3.5t3 7.5v17q0 12 12 16l21 8q10 6 19 -3l12 -11q3 -4 7 -4q5 0 8 4l20 19q3 4 3 8t-3 8l-12 11q-8 9 -3 20l9 20q3 12 16 12h16q5 0 8 3.5t3 7.5v28v0zM857 124q0 -26 -18 -44t-43.5 -18t-43.5 18t-18 44t18 44t43.5 18t43.5 -18t18 -44z
" />
    <glyph glyph-name="uniE602" unicode="&#xe602;" 
d="M901 487l-278 -278l-203 -76l76 203l279 278q21 21 50.5 21t50.5 -21l25 -25q21 -21 21 -51t-21 -51zM481 195l122 45l7 7l-76 76l-7 -7zM559 349l76 -76l190 189l-76 76zM876 564l-25 25q-11 11 -25.5 11t-25.5 -11l-26 -25l76 -76l26 25q11 11 11 25.5t-11 25.5z
M223 115v36h176l-13 -36h-163zM426 223h-203v36h217zM223 474h179v-36h-179v36zM402 330h-179v36h179v-36zM617 151v-36h-174l96 36h78zM528 677v-131q0 -15 10.5 -25.5t25.5 -10.5h55l-36 -36h-19q-30 0 -51 21t-21 51v161h-323q-15 0 -25.5 -10.5t-10.5 -25.5v-681
q0 -15 10.5 -25.5t25.5 -10.5h502q15 0 25.5 10.5t10.5 25.5v253l36 35v-288q0 -30 -21 -51t-51 -21h-502q-29 0 -50 21t-21 51v681q0 30 21 51t50 21h269h10h18h50l162 -174l-25 -26z" />
    <glyph glyph-name="uniE603" unicode="&#xe603;" 
d="M245 576q0 18 12.5 30.5t30.5 12.5h448q18 0 30.5 -12.5t12.5 -30.5l32 -213h41l-31 213q0 35 -25 60t-60 25h-448q-35 0 -60 -25t-25 -60l-31 -213h41zM288 416q0 -13 9.5 -22.5t22.5 -9.5h384q13 0 22.5 9.5t9.5 22.5q0 5 -1.5 8t-5 3.5t-6.5 0.5t-9 -0.5t-10 -0.5
h-384q-4 0 -10 0.5t-9 0.5t-6.5 -0.5t-5 -3.5t-1.5 -8zM683 491q13 0 22.5 9t9.5 23q0 5 -1.5 7.5t-5 3.5t-6.5 1t-9 -1t-10 -1h-342q-4 0 -10 1t-9 1t-6.5 -1t-5 -3.5t-1.5 -7.5q0 -14 9.5 -23t22.5 -9h342zM843 320h-662q-35 0 -60 -25t-25 -60l21 -235q0 -35 25 -60
t61 -25h618q36 0 61 25t25 60l21 235q0 35 -25 60t-60 25zM864 0q0 -18 -12.5 -30.5t-30.5 -12.5h-618q-18 0 -30.5 12.5t-12.5 30.5l-21 235q0 17 12.5 29.5t29.5 12.5h662q17 0 29.5 -12.5t12.5 -29.5zM629 74.5q0 13.5 -9 23t-23 9.5h-170q-14 0 -23 -9.5t-9 -23t9 -22.5
t23 -9v0h170q14 0 23 9t9 22.5z" />
    <glyph glyph-name="uniE604" unicode="&#xe604;" 
d="M512 827q-100 0 -185.5 -49.5t-134.5 -134.5t-49 -186q0 -70 25 -135q8 -21 19 -41q19 -37 43.5 -76.5t65 -93t97 -105t119.5 -89.5q63 38 119.5 89.5t97 105t65 93t43.5 76.5q44 82 44 176q0 101 -49 186t-134.5 134.5t-185.5 49.5zM512 139q-130 0 -222 92t-92 222
t92 222t222 92t222 -92t92 -222t-92 -222t-222 -92zM726 594h-200q-7 0 -12 -4.5t-5 -11t5 -11t12 -4.5h200q8 0 12.5 4.5t4.5 11t-4.5 11t-12.5 4.5zM677 508h-151q-7 0 -12 -4.5t-5 -11t5 -11t12 -4.5h151q7 0 12 4.5t5 11t-5 11t-12 4.5zM630 421h-104q-7 0 -12 -4.5
t-5 -10.5t5 -11t12 -5h104q7 0 12 4.5t5 11t-5 11t-12 4.5zM438 651q-9 5 -14 -4l-2 -2q-5 -10 4 -15l32 -18q1 -1 4 -2l-96 -167l-31 18q-9 5 -15 -4l-4 -8q-14 -24 -18 -30q-3 -6 -9.5 -24.5t-6.5 -27.5q0 -1 -1 -11t-0.5 -16.5t1.5 -15.5t5.5 -16t10.5 -11q6 -3 13 -3.5
t13 1t13.5 5t12 6.5t10.5 6.5t7 4.5q8 5 20.5 19.5t16.5 21.5q1 2 6.5 11.5t7.5 13.5l8 13q5 9 -4 15l-31 17l97 167l2 -1l1 -1l10 -6q5 14 20 16z" />
    <glyph glyph-name="uniE605" unicode="&#xe605;" 
d="M626 682h-9q-5 4 -11 5l-362 80q-9 2 -17 -3t-10 -14l-5 -23q-2 -9 3 -17.5t14 -10.5l351 -77v-56h-6q6 -11 6 -23v-47q0 -12 -6 -23q6 -11 6 -23v-301q0 -19 -13.5 -33t-32.5 -14h-417q-19 0 -33 14t-14 33v301q0 19 14 32.5t33 13.5h324v47q0 12 6 23h-400
q-19 0 -32.5 -13.5t-13.5 -32.5v-441q0 -19 13.5 -32.5t32.5 -13.5h556q19 0 33 13.5t14 32.5v441q0 7 -2 13q2 5 2 10v116q0 9 -7 16t-17 7zM140 427q-10 0 -16.5 -7t-6.5 -16v-23q0 -10 6.5 -17t16.5 -7h278q10 0 16.5 7t6.5 17v23q0 9 -6.5 16t-16.5 7h-278zM1010 562
q-9 12 -24 9l-248 -58q-10 -2 -15 -10.5t-3 -17.5l6 -23q2 -9 10 -14t18 -3l197 46v-364l-195 55q-9 3 -17.5 -2t-10.5 -14l-6 -22q-3 -10 1.5 -18t14.5 -11l213 -60q0 -9 7 -15.5t16 -6.5h23q10 0 16.5 7t6.5 16v487q0 12 -10 19z" />
    <glyph glyph-name="uniE606" unicode="&#xe606;" 
d="M860 680q-85 1 -162 -19q-90 -23 -156 -64v-489q61 34 140 56q88 25 178 20v45q33 -1 60 9v-87q0 -1 -1 -3q-1 -13 -11 -20.5t-22 -6.5q-95 12 -187 -15q-90 -25 -170 -75h-1v0v-1h-1v0h-1v-1h-1v0v0l-1 -1v0v0h-1v0v0h-1v-1v0h-1h-1v0v0h-1v-1v0h-1v0v0h-1v0v0h-1v0h-1
v0v0h-1v0h-1v0h-1v0h-1v0h-1v0h-1v0h-1v0v0h-1v0h-1v0v0h-1v0v0h-1v0v1h-1v0v0h-1h-1v0v1h-1v0v0h-1v0v0l-1 1v0v0h-1v1h-1v0h-1v1v0h-1q-91 56 -157 75q-92 27 -188 15q-12 -1 -21.5 6.5t-11.5 20.5v3v83q27 -7 60 -4v-46q90 5 177 -20q53 -15 128 -56v489q-75 47 -143 64
q-77 20 -162 19v-170q-33 5 -60 3v196q0 13 8.5 21.5t21.5 8.5q200 11 365 -90q167 102 378 90h1q12 0 21 -8.5t9 -21.5v-198q-27 4 -61 1v168h1zM813 464q-2 -19 -3 -39l26 -9l-27 -4q-1 -21 0 -42l21 -8l-21 -3q1 -22 4 -45l18 -4l-18 -3l4 -32q73 -20 107 10
q29 26 40 70.5t-4 87.5q-6 17 -24.5 25t-44 7t-43.5 -4t-35 -7v0zM210 464q-17 4 -35 7t-43.5 4t-44.5 -7t-25 -25q-14 -43 -3 -87.5t39 -70.5q35 -30 107 -10q3 16 4 32l-17 3l18 4q2 23 3 45l-21 3l22 8q0 21 -1 42l-26 4l26 9q-1 20 -3 39zM210 464zM757 440h-147
q-8 0 -8 10.5t8 10.5h147q7 0 7 -10.5t-7 -10.5zM757 505h-147q-8 0 -8 10.5t8 10.5h147q7 0 7 -10.5t-7 -10.5zM610 396h147q7 0 7 -10.5t-7 -10.5h-147q-8 0 -8 10.5t8 10.5z" />
    <glyph glyph-name="uniE607" unicode="&#xe607;" 
d="M527 849q-122 0 -225.5 -53.5t-164 -145.5t-60.5 -201q0 -96 45 -179t126 -138v-180l170 109q52 -11 106 -11q122 0 226 53.5t164.5 145.5t60.5 200.5t-60 200.5t-163 145.5t-225 53.5zM527 100q-65 0 -122 15l-112 -70v113q0 3 -15 13q-72 49 -113 121.5t-41 156.5
q0 95 54 175.5t146.5 127.5t201 47t200.5 -47t145.5 -127.5t53.5 -175.5t-53 -175.5t-145 -127t-200 -46.5zM731 575h-400q-10 0 -17.5 -7.5t-7.5 -18t7.5 -18t17.5 -7.5h400q10 0 17.5 7.5t7.5 18t-7.5 18t-17.5 7.5zM695 378q0 9 -6.5 15t-15.5 6h-306q-9 0 -15 -6t-6 -15
v-7q0 -9 6 -15.5t15 -6.5h306q9 0 15.5 6.5t6.5 15.5v7z" />
    <glyph glyph-name="uniE608" unicode="&#xe608;" 
d="M552 10q-42 0 -89 10t-82.5 22.5t-71 29t-48.5 23.5t-21 12l-12 8v302q0 4 1 8l-137 63q-34 15 -35 44q0 29 33 45l369 176q25 12 57.5 12t57.5 -12l367 -170q34 -16 34 -45q0 -27 -29 -43v-198h-51v173l-319 -150q-25 -11 -58 -11.5t-57 11.5l-182 82v-258
q29 -16 63.5 -32t96.5 -33.5t113 -17.5q49 0 99 17t75 32t45 31l-1 178q0 10 7.5 17.5t18.5 7.5t18.5 -7.5t7.5 -17.5v-201l-8 -8q-4 -4 -14.5 -12t-36.5 -24.5t-55 -30t-71.5 -23.5t-84.5 -10zM116 533l366 -167q14 -6 36 -6t36 7l363 170l-365 170q-14 7 -35.5 7t-35.5 -7
z" />
    <glyph glyph-name="uniE609" unicode="&#xe609;" 
d="M989 80v-91l24 -25l-46 -36l-43 36l26 26v75q-116 -43 -205 -79q-40 -16 -83 -2q-158 54 -239 88q-36 16 -36.5 27t37.5 24q34 11 118 40.5t113 38.5q22 8 31.5 11t24 2.5t29.5 -7.5q28 -11 120.5 -44t125.5 -46q17 -6 24.5 -11t6 -9t-4.5 -6.5t-11.5 -6t-11.5 -5.5v0z
M752 -51q16 6 59 23.5t67 27.5v-151q-2 -2 -7 -6t-22 -14.5t-35.5 -18.5t-48.5 -14.5t-61 -6.5q-33 0 -64.5 6.5t-52 15t-36.5 17.5t-24 15l-7 6v141q18 -7 131 -41q60 -20 101 0v0v0zM750 638q-11 -8 -26.5 -10t-39 -0.5t-34.5 0.5q-18 -1 -63 -5.5t-69 -4.5
q-5 -1 -17 -0.5t-17 0.5q-17 -1 -62 -2t-63 -2q-3 0 -14 -1.5t-16 -0.5q-17 1 -28.5 10.5t0.5 23.5q14 -3 27 -3t35 1.5t28 1.5q47 3 161 2q2 0 6 0.5t5 0.5q11 1 33.5 4.5t41 5.5t34.5 1q41 -1 53 0q15 1 18 -1q4 -3 4 -9t3 -12zM291 540q-1 4 -0.5 10t0.5 8q25 9 77 8
q7 0 20.5 1t17.5 1q18 1 60 2t75 2t64 4q6 1 40.5 5t52.5 4q1 3 3 4q17 4 28 -7t0 -23q-12 -4 -27 -5t-35 -1.5t-32 -1.5q-6 -1 -19 -3.5t-20 -2.5q-55 -4 -67 -5q-4 0 -15 -1t-16 -1q-1 0 -29 2q-4 1 -12.5 -1.5t-12.5 -2.5q-1 0 -4 1l-3 1q-6 1 -20.5 -0.5t-19.5 -1.5
q-6 0 -20.5 0.5t-25.5 -0.5t-20 -4q-5 2 -20 3.5t-20 4.5zM300 455q-3 6 -2 14q4 5 10 7t10.5 2t15 -0.5t14.5 -0.5q106 -2 198 6q16 1 50 6t50 5q30 1 40 4q1 0 2 1t2 1q9 -4 15 -11t3 -14q-3 -8 -20 -8.5t-23 -3.5q-13 2 -19.5 1.5t-20 -4t-20.5 -4.5t-21.5 -1.5
t-22.5 -1.5q-39 -5 -82 -6q-15 0 -52.5 0.5t-51.5 -0.5q-10 -1 -35 1q-28 2 -40 7zM705 387q0 -9 3 -36.5t3 -35.5v-35q-8 -5 -23 -7q-19 7 -35 20.5t-33.5 32.5t-28.5 28q-8 -2 -19 -8t-15 -7q-2 -1 -7 -1.5t-7 -2.5q-4 -2 -11.5 -12.5t-15.5 -11.5q-1 -1 -1 -5t-1 -5
q-32 -21 -51 -29q-5 -2 -12 -3t-15.5 -1.5t-12.5 -1.5t-25.5 -5.5t-33.5 -4.5q-38 0 -115 17q-4 -3 -12 -5.5t-11 -4.5t-7.5 -7.5t-6.5 -6.5t-5.5 -2.5t-5.5 -2.5q-51 -34 -56 -3q-1 6 0.5 20.5t0.5 19.5q0 7 2.5 21.5t2.5 16.5q-9 13 -41 23q-8 9 -28.5 22.5t-28.5 22.5
q-2 6 -3 7q-38 39 -39 95q0 4 1.5 13.5t2.5 13.5q2 56 19 73q6 19 17 22q0 10 14 22t17 17q5 2 15.5 7t15 7t15.5 6.5t16 6t17 5t17.5 3.5t18 1.5t19.5 -0.5q7 4 25.5 18t32.5 23t30 15q5 2 17 4.5t18 4.5q2 1 5 3.5t5 3.5q7 3 22.5 6t20.5 5q57 16 133.5 18t134.5 -9
q2 -2 7.5 -3t6.5 -3q1 0 3 1t4 0q4 -2 17 -6t17 -9q51 -10 92 -56q34 -37 53 -87q7 -20 9 -38q3 -29 -5 -45q1 -26 -23 -58q-50 -69 -136 -87zM716 420q26 8 75 42q1 7 12 12q1 7 8 13t8 8q7 12 12 28q11 40 -2.5 82t-38.5 70q-18 21 -39 34q-26 16 -81 32q-66 18 -112 16
q-10 0 -34 -1t-37.5 -1.5t-31.5 -3t-31 -5.5q-3 -1 -9 -3.5t-10 -3.5q-3 -1 -10 -2.5t-11 -2.5q-81 -20 -132 -62q-23 -20 -34.5 -32t-21.5 -36.5t-9 -55.5q1 -13 4.5 -27.5t7.5 -24t11.5 -25t10.5 -23.5q13 -30 32 -46.5t53 -29.5q17 0 45 -7.5t40 -8.5q2 0 7.5 0.5
t7.5 0.5q3 0 8 -1.5t7 -1.5q96 1 131 15q4 1 13.5 5.5t13 5.5t13 2.5t14.5 -2.5q15 -6 35.5 -33t35.5 -33q2 27 -4 85q1 1 4 12q4 1 17.5 6t21.5 3zM120 611q-4 -5 -12 -14t-12 -14q-12 -17 -18 -36l-12 -16q-9 -12 -14 -21t-7 -18q6 5 14.5 19t13.5 19q6 17 23.5 40.5
t23.5 34.5q11 9 12 17q7 4 12 18q0 1 -2 2q-6 -3 -9.5 -8t-7 -12.5t-5.5 -10.5zM148 616q0 3 2.5 6t2.5 4q-3 -1 -5 -4t0 -6zM66 562q9 10 22.5 30.5t19.5 27.5q1 0 1 1t-1 1q-4 -5 -14.5 -16.5t-17.5 -21.5t-10 -22zM127 588q17 19 18 27q-2 -2 -18 -27zM150 593
q-2 -2 -5.5 -6t-5.5 -6q-2 -3 -3.5 -9t-3.5 -9q-1 -2 -5 -5.5t-5 -5.5q-4 -6 -13 -21t-14 -23q-24 -37 -26 -58q-11 -7 -8 -18.5t13 -17.5q4 5 -2.5 9t-6.5 7q-1 4 1.5 9.5t7.5 12t5 7.5q3 5 8.5 16.5t8.5 16.5q2 4 10 18t12 22q3 5 9.5 13t8.5 13q10 22 13 25l3 1q4 2 4 5
q-1 1 1.5 8.5t-0.5 7.5q-3 -1 -4 -3t-1.5 -4.5t-1.5 -4.5zM108 557q3 0 6 5t6 11.5t5 9.5q0 1 -2 1q-10 -14 -15 -27zM145 552q5 -1 8 4t-1 7q-3 0 -4.5 -5t-2.5 -6zM93 545l-3 -5q-1 -3 -1 -5q0 -1 -2 -1.5t-1 -2.5q-5 -10 -28 -44q-15 -20 -7 -31q10 18 29.5 49t26.5 42
l-1 4q-2 -2 -7 -3.5t-6 -2.5v0zM51 533q0 2 3.5 5t4 4.5t-0.5 5.5q-1 -1 -3.5 -2t-3.5 -2v-4q0 -3 -0.5 -4.5t0.5 -2.5zM144 522q-4 -8 -18 -30t-19 -32q-1 -2 -4.5 -11t-6.5 -14q-2 -2 -2 -9v-10q-1 -3 -6 -8t-6 -8q5 -4 6 -4q9 21 20.5 41.5t27 47t22.5 38.5q-1 2 -1 6
t-0.5 7t-3.5 3q-8 -5 -9 -17zM159 502q-4 -6 -12 -19.5t-14 -24.5t-10 -23h4q3 0 5 -2q5 6 11 20t10 19q1 1 3.5 2.5t2.5 2.5q1 1 0.5 3t-0.5 3q1 3 3 6l3 5q1 1 0.5 3.5t-2.5 4.5h-4zM123 387v-7q0 -5 -1 -8q5 1 8.5 12t8.5 12q7 19 29 57q1 1 3.5 4.5t3.5 5.5t2 5t-0.5 5
t-5.5 4q-37 -62 -48 -90zM181 449q-37 -65 -44 -86q10 -6 15 -7q4 7 15 39t24 43q-2 1 -3.5 6t-3.5 5h-3zM165 349q2 -1 4.5 -2.5t3.5 -2.5q3 5 19 44q1 4 4 9.5t4 8.5t1.5 7t-1.5 7.5t-7 6.5q-7 -13 -16.5 -42t-11.5 -36zM103 385q5 1 8 7t2 11q-14 -13 -10 -18zM182 295
q4 7 19.5 39t21.5 51q-2 1 -5.5 7t-7.5 8q-2 -6 -13 -30.5t-14.5 -41t-0.5 -33.5zM234 377q-27 -55 -36 -90q-2 -3 -6 -1.5t-4.5 1.5t-3.5 3l-4 2q-1 -4 -1 -10v-11q6 -1 12 3.5t8 5.5q7 19 25 50.5t21 39.5q-7 6 -11 7zM257 364q-6 -7 -12 -16.5t-9 -16t-9.5 -20
t-7.5 -17.5q4 1 12 6.5t16 5.5q2 5 11.5 22t13.5 27q-5 6 -15 9zM285 351q-2 -3 -8 -13.5t-9 -17.5t-5 -16q4 -5 16 -5q2 9 10.5 24t10.5 25q-6 3 -15 3zM313 343q-19 -42 -20 -46q2 -2 9 -3t9 -2q6 11 23 48q-7 4 -21 3zM349 337q-20 -29 -22 -47q3 0 10 -0.5t9 0.5
q3 8 11 22t11 21q-18 4 -19 4zM378 329q-1 -4 -8.5 -17.5t-5.5 -21.5q19 26 25 39q-9 1 -11 0zM449 327q-7 -15 -8 -26q9 0 15 3q0 11 8 15.5t15 -3.5q1 1 6 5t6 7q-28 1 -42 -1zM383 291q2 -1 3 -0.5t3.5 1t4.5 0.5q1 6 7 16.5t6 18.5q-14 -6 -24 -36zM410 295h13
q1 2 10 29q-7 3 -11.5 -1t-7.5 -15t-4 -13zM345 134v-51l14 -13l-26 -21l-24 21l15 14v41q-65 -23 -115 -43q-22 -9 -46 -1q-88 29 -132 48q-21 9 -21 15t21 13q19 7 65.5 23t62.5 21q18 7 25 7.5t23 -4.5q15 -5 66.5 -23.5t70.5 -25.5q11 -4 14 -8t2.5 -5.5t-8.5 -4.5
l-7 -3v0zM213 61q9 3 33 13t38 15v-83q-4 -4 -11.5 -9.5t-33 -14.5t-52.5 -9q-30 0 -55.5 8t-36.5 17l-11 8v78q10 -4 73 -23q34 -11 56 0v0zM213 61z" />
    <glyph glyph-name="uniE60A" unicode="&#xe60a;" 
d="M503 50q-81 0 -148.5 47t-94.5 124q-6 16 2 31.5t24 21.5q16 7 31.5 -1t21.5 -24q19 -53 64.5 -84t102.5 -31q55 0 101 31.5t65 83.5q6 16 21.5 23t31.5 2q16 -6 23.5 -21.5t2.5 -31.5q-32 -77 -99 -124t-149 -47zM503 -203q-102 0 -195 39.5t-160.5 107t-107.5 161
t-40 195.5t40 195.5t107.5 161t160.5 107t195.5 39.5t195.5 -39.5t160.5 -107t107.5 -161t40 -195.5q0 -54 -9 -94q-4 -21 -21.5 -33t-37.5 -7q-21 3 -33.5 21t-7.5 38q7 39 7 75q0 108 -53.5 200t-145.5 145.5t-200 53.5q-110 0 -203 -53.5t-147 -145.5t-54 -200t53.5 -200
t145.5 -145.5t200 -53.5q92 0 173 39t139 110q13 16 34.5 19t37.5 -10t19 -35t-10 -38q-72 -90 -174 -139.5t-217 -49.5zM939 215zM853 214.5q0 35.5 25 60.5t60.5 25t60.5 -25t25 -60.5t-25 -60.5t-60.5 -25t-60.5 25t-25 60.5z" />
    <glyph glyph-name="uniE60B" unicode="&#xe60b;" 
d="M782 -147h-226h-208q-3 0 -44 57t-86 124.5t-55 90.5q-21 54 16 108q21 29 54 43.5t64 0.5q20 -9 47.5 -28.5t44.5 -34.5l18 -15v231q0 13 3.5 26t12.5 30.5t31.5 28t55.5 10.5q29 0 51.5 -9.5t34 -24t17 -28t5.5 -25.5v-10v-16v-20v-20v-21v-19v-16v-11v-4
q9 -2 24.5 -6.5t56.5 -20t73 -33t61 -44.5t34 -55q4 -22 -7.5 -91.5t-33.5 -133.5t-44 -64zM807 123q-2 19 -17 35t-35.5 26.5t-48 19t-50 13.5t-46.5 8.5t-32.5 4t-13.5 0.5v165q0 3 -1 7.5t-4.5 17.5t-9 23t-16.5 18t-25 9q-21 1 -31.5 -16.5t-11.5 -34.5v-18v-259
q-8 -2 -20 -4.5t-36 -1.5t-32 10q-14 15 -23.5 24.5t-25.5 22.5t-29 18.5t-28 5.5t-27 -10q-13 -15 -12.5 -35.5t10.5 -43.5q7 -16 41.5 -70t64.5 -100l30 -47h374q0 -2 15.5 39.5t29.5 94t10 78.5zM693 516q-13 0 -21.5 9.5t-8.5 22.5v21q0 29 -30 57t-69 43t-71 15
q-49 0 -94.5 -35t-45.5 -80v-21q0 -13 -9 -22.5t-21.5 -9.5t-21.5 9.5t-9 22.5v21q0 71 63.5 124t137.5 54q87 0 158.5 -53t71.5 -125v-21q0 -13 -8.5 -22.5t-21.5 -9.5zM693 516z" />
    <glyph glyph-name="uniE60C" unicode="&#xe60c;" 
d="M777 -95h-10q-28 3 -59 19l-116 61q-32 17 -80 17t-80 -17l-116 -61q-65 -34 -109.5 -1.5t-32.5 104.5l22 129q6 36 -9 82t-41 71l-94 92q-52 50 -34.5 103t88.5 63l131 19q35 5 74 33.5t55 60.5l58 118q33 65 88 65t88 -65l58 -118q16 -32 55 -60.5t74 -33.5l131 -19
q71 -10 88.5 -63t-34.5 -103l-175 -171q-13 -12 -30 -11.5t-29.5 12.5t-12 29.5t12.5 29.5l175 171q10 9 13 17q-7 4 -21 6l-130 19q-56 8 -112 48.5t-81 91.5l-58 118q-6 12 -12 17q-6 -5 -12 -17l-58 -118q-25 -51 -81 -91.5t-112 -48.5l-130 -19q-14 -2 -21 -6
q3 -8 13 -17l94 -92q41 -39 62 -105t12 -122l-22 -129q-3 -14 -1 -21q8 0 20 6l117 61q50 27 119 27t119 -27l117 -61q13 -7 23 -9l-15 88q-3 17 7 31.5t27.5 17.5t31.5 -7.5t17 -27.5l15 -87q10 -57 -29 -85q-20 -14 -48 -14z" />
    <glyph glyph-name="uniE60D" unicode="&#xe60d;" 
d="M957 861h-877q-19 0 -32.5 -13.5t-13.5 -32.5v-877q0 -19 13.5 -32.5t32.5 -13.5h877q19 0 33 13.5t14 32.5v877q0 19 -14 32.5t-33 13.5zM259 487q0 82 58.5 140t140.5 58v-55q-60 0 -102 -42t-42 -101v-2h68l-93 -92l-93 92h63v2zM448 68h-180q-29 0 -50.5 21t-21.5 51
v126q0 29 21.5 50t50.5 21h180q29 0 50.5 -21t21.5 -50v-126q0 -30 -21.5 -51t-50.5 -21zM516 487v126q0 30 21 51t51 21h179q30 0 51 -21t21 -51v-126q0 -29 -21 -50t-51 -21h-179q-30 0 -51 21t-21 50zM778 266q0 -82 -58 -140t-140 -58h-1v55h1q59 0 101 42t42 101v1h-67
l92 93l93 -93h-63v-1zM438 274h-160q-8 0 -13 -5t-5 -13v-107q0 -7 5 -12.5t13 -5.5h160q8 0 13 5.5t5 12.5v107q0 8 -5 13t-13 5zM758 479q7 0 12.5 5t5.5 13v107q0 7 -5.5 12.5t-12.5 5.5h-161q-7 0 -12.5 -5.5t-5.5 -12.5v-107q0 -8 5.5 -13t12.5 -5h161z" />
    <glyph glyph-name="uniE60E" unicode="&#xe60e;" horiz-adv-x="1025" 
d="M512 -212q-104 0 -198.5 40.5t-163.5 109.5t-109.5 163.5t-40.5 198.5t40.5 199t109.5 163.5t163.5 109t198.5 40.5t199 -40.5t163.5 -109t109 -163.5t40.5 -199t-40.5 -198.5t-109 -163.5t-163.5 -109.5t-199 -40.5zM843 -55q-25 16 -104 35q-5 1 -20.5 5t-21.5 5.5
t-19.5 6t-19.5 8t-15 9.5t-13 12.5t-6.5 16t-1.5 20.5q-31 -28 -78 -36t-90 9q-7 2 -21.5 12t-21.5 9q0 -14 -5.5 -25t-12 -18t-22 -13t-24 -8.5t-28.5 -6.5t-25 -6q-80 -19 -108 -39q66 -61 150 -94t176 -33q94 0 179.5 34.5t151.5 96.5zM549 601q-120 10 -179 -63
t-41 -198q-1 -1 -6 -2t-7.5 -3t-3.5 -5q0 -86 45 -103q7 -32 21 -61t35.5 -54t52.5 -38t67 -9q57 7 93 53.5t51 108.5q25 10 36 39.5t8 65.5q-1 5 -8.5 6t-9.5 2q14 63 -2 121.5t-57 96.5t-95 43z" />
    <glyph glyph-name="uniE60F" unicode="&#xe60f;" 
d="M970 3q-17 89 -80.5 152.5t-150.5 78.5l-13 3l-9 -7q-89 -64 -199 -64q-108 0 -201 64l-10 7l-19 -3q-89 -15 -154 -78.5t-80 -152.5q-9 -49 26 -89q28 -42 86 -42h692q52 0 86 38q36 41 26 93zM896 -48q-16 -16 -38 -16h-692q-22 0 -38 16q-15 15 -10 38
q12 65 58.5 113.5t111.5 62.5q106 -70 227 -70q128 0 224 67q64 -14 109 -62t58 -114q5 -15 -10 -35zM218 445q24 -99 106 -163t185 -64q104 0 188.5 64.5t105.5 162.5q61 42 61 99v19q0 29 -32 61q-6 35 -19.5 70t-39.5 72.5t-60.5 65.5t-85.5 46t-111.5 18t-112.5 -17.5
t-86.5 -45.5t-61 -65t-40.5 -72.5t-20 -71.5q-35 -35 -35 -61v-19q0 -59 58 -99zM224 563q0 9 9.5 16t19.5 7q2 3 6.5 8t19 15.5t31.5 16.5t44 5t56 -13q47 -20 81 -24t50.5 0.5t45 16t50.5 16.5q25 5 46 3t37 -9t27.5 -15t17.5 -14l6 -6q10 0 19.5 -7t9.5 -16v-19
q0 -22 -32 -48l-10 -5q-6 -3 -8 -4.5t-4 -5.5t-4 -11q-14 -81 -79.5 -134.5t-147.5 -53.5q-84 0 -148.5 53.5t-78.5 134.5q-1 9 -4 12.5t-12 7t-13 6.5q-13 8 -22.5 21t-9.5 27v19h-3z" />
    <glyph glyph-name="uniE610" unicode="&#xe610;" 
d="M383 -64h-3q-121 11 -201.5 62t-80.5 116q0 41 38 74.5t93.5 54t123.5 30.5v13q-34 25 -56 60t-33 78t-14.5 83t-3.5 92q0 109 61 171t169 62q106 0 163 -60t57 -173q0 -52 -16.5 -114t-45.5 -116q-6 -12 -19 -15.5t-24.5 2.5t-15.5 18.5t2 24.5q25 47 40 101.5t15 98.5
q0 169 -156 169q-166 0 -166 -169q0 -47 3 -82.5t12 -73t28.5 -66.5t48.5 -48q15 -9 15 -27v-57q0 -12 -8.5 -21.5t-20.5 -10.5q-96 -10 -161 -41.5t-65 -57.5q0 -33 63.5 -69.5t159.5 -44.5q14 -1 22.5 -11.5t7.5 -23.5q-2 -12 -11 -20.5t-21 -8.5zM769 128h-128
q-14 0 -23 9.5t-9 22.5t9 22.5t23 9.5h128q13 0 22.5 -9.5t9.5 -22.5t-9.5 -22.5t-22.5 -9.5zM705 29h-64q-14 0 -23 9t-9 22.5t9 23t23 9.5h64q13 0 22.5 -9.5t9.5 -23t-9.5 -22.5t-22.5 -9zM833 -67h-256q-40 0 -68 28t-28 68v163q0 40 28 68t68 28h256q39 0 67.5 -28
t28.5 -68v-163q0 -40 -28.5 -68t-67.5 -28zM577 224q-13 0 -22.5 -9.5t-9.5 -22.5v-163q0 -14 9.5 -23t22.5 -9h256q13 0 22.5 9t9.5 23v163q0 13 -9.5 22.5t-22.5 9.5h-256z" />
    <glyph glyph-name="uniE611" unicode="&#xe611;" 
d="M40 591h944q16 0 28 12t12 28.5t-12 28.5t-28 12h-944q-16 0 -28 -12t-12 -28.5t12 -28.5t28 -12zM984 322h-944q-16 0 -28 -12t-12 -28.5t12 -28.5t28 -12h944q16 0 28 12t12 28.5t-12 28.5t-28 12zM984 -29h-944q-16 0 -28 -11.5t-12 -28.5t12 -28.5t28 -11.5h944
q16 0 28 11.5t12 28.5t-12 28.5t-28 11.5z" />
    <glyph glyph-name="uniE612" unicode="&#xe612;" 
d="M877 547q0 -4 -4 -7.5t-9 -3.5h-704q-5 0 -9 3.5t-4 7.5v39q0 5 4 8t9 3h704q5 0 9 -3t4 -8v-39zM877 323q0 -5 -4 -8.5t-9 -3.5h-704q-5 0 -9 3.5t-4 8.5v39q0 4 4 7.5t9 3.5h704q5 0 9 -3.5t4 -7.5v-39zM877 101q0 -5 -4 -8t-9 -3h-704q-5 0 -9 3t-4 8v39q0 5 4 8t9 3
h704q5 0 9 -3t4 -8v-39z" />
    <glyph glyph-name="uniE613" unicode="&#xe613;" 
d="M877 547q0 -4 -4 -7.5t-9 -3.5h-704q-5 0 -9 3.5t-4 7.5v39q0 5 4 8t9 3h704q5 0 9 -3t4 -8v-39zM877 323q0 -5 -4 -8.5t-9 -3.5h-704q-5 0 -9 3.5t-4 8.5v39q0 4 4 7.5t9 3.5h704q5 0 9 -3.5t4 -7.5v-39zM877 101q0 -5 -4 -8t-9 -3h-704q-5 0 -9 3t-4 8v39q0 5 4 8t9 3
h704q5 0 9 -3t4 -8v-39z" />
    <glyph glyph-name="uniE614" unicode="&#xe614;" 
d="M167 384zM65 384.5q0 42.5 30 72.5t72.5 30t72.5 -30t30 -72.5t-30 -73t-72.5 -30.5t-72.5 30.5t-30 73zM512 384zM409 383.5q0 42.5 30 73t73 30.5t73 -30.5t30 -73t-30 -72.5t-73 -30t-73 30t-30 72.5zM857 384zM754 384.5q0 42.5 30 72.5t72.5 30t72.5 -30t30 -72.5
t-30 -73t-72.5 -30.5t-72.5 30.5t-30 73z" />
    <glyph glyph-name="uniE615" unicode="&#xe615;" 
d="M825 667h-624q-44 0 -74.5 -30.5t-30.5 -73.5v-417q0 -43 30.5 -73.5t74.5 -30.5h204l108 -131l107 131h205q43 0 73.5 30.5t30.5 73.5v417q0 43 -30.5 73.5t-73.5 30.5zM279 303q-22 0 -37 15t-15 36.5t15 37t36.5 15.5t37 -15.5t15.5 -37t-15.5 -36.5t-36.5 -15z
M512.5 303q-21.5 0 -36.5 15t-15 36.5t15 37t36.5 15.5t37 -15.5t15.5 -37t-15.5 -36.5t-37 -15zM747.5 303q-21.5 0 -37 15t-15.5 36.5t15.5 37t37 15.5t36.5 -15.5t15 -37t-15 -36.5t-36.5 -15z" />
    <glyph glyph-name="uniE616" unicode="&#xe616;" 
d="M529 756q-122 0 -225 -51.5t-163 -140.5t-60 -194q0 -74 22 -135.5t55.5 -102t83.5 -78.5t94.5 -62t101 -56.5t91.5 -58.5q39 33 95.5 67.5t102 58t94 59.5t81.5 74t54.5 98t21.5 136q0 105 -60.5 194t-163.5 140.5t-225 51.5zM318.5 269q-37.5 0 -64.5 26.5t-27 64.5
t27 65t64.5 27t64.5 -27t27 -65t-27 -64.5t-64.5 -26.5zM545 269q-38 0 -64.5 26.5t-26.5 64.5t26.5 65t64.5 27t65 -27t27 -65t-27 -64.5t-65 -26.5zM762.5 269q-37.5 0 -64.5 26.5t-27 64.5t27 65t64.5 27t64.5 -27t27 -65t-27 -64.5t-64.5 -26.5z" />
    <glyph glyph-name="uniE617" unicode="&#xe617;" 
d="M512 697q-106 0 -196 -46.5t-142.5 -126t-52.5 -172.5q0 -72 31 -135.5t87 -111.5q0 -38 -9 -69t-20 -47t-20 -35t-9 -36q22 -6 44 -6t39 2.5t38.5 12.5t33.5 16t34 22.5t30 23.5t30 25q41 -8 82 -8q106 0 196 46.5t142.5 126t52.5 173t-52.5 173t-142.5 126t-196 46.5z
M512 236h-159q-15 0 -25.5 10.5t-10.5 25.5t10.5 25.5t25.5 10.5h159q15 0 25.5 -10.5t10.5 -25.5t-10.5 -25.5t-25.5 -10.5zM671 400h-318q-15 0 -25.5 10.5t-10.5 25.5t10.5 25.5t25.5 10.5h318q15 0 25.5 -10.5t10.5 -25.5t-10.5 -25.5t-25.5 -10.5z" />
    <glyph glyph-name="uniE618" unicode="&#xe618;" 
d="M368 -1h-103q-62 0 -106 45t-44 109v399q0 64 44 109.5t106 45.5h492q62 0 106.5 -45.5t44.5 -109.5v-399q0 -64 -44 -109t-107 -45h-128q-11 0 -19 -8l-134 -144q-8 -8 -7.5 -18.5t8 -18t18 -7.5t17.5 8l135 144l-18 -8h128q84 0 142.5 60t58.5 146v399q0 86 -59 146
t-142 60h-492q-83 0 -141.5 -60t-58.5 -146v-399q0 -85 58.5 -145.5t141.5 -60.5h103q10 0 17.5 7.5t7.5 18.5t-7.5 18.5t-17.5 7.5v0zM283 423h386q11 0 18.5 7.5t7.5 18t-7.5 18t-18.5 7.5h-386q-10 0 -17.5 -7.5t-7.5 -18t7.5 -18t17.5 -7.5v0zM283 261h457
q10 0 17.5 7.5t7.5 18.5t-7.5 18.5t-17.5 7.5h-457q-10 0 -17.5 -7.5t-7.5 -18.5t7.5 -18.5t17.5 -7.5v0zM283 261z" />
    <glyph glyph-name="uniE619" unicode="&#xe619;" 
d="M512 799q104 0 197.5 -39t164.5 -110l1 -3q70 -70 109 -163t39 -196q0 -80 -25 -158q-25 -75 -65 -132v-183q0 -16 -11.5 -27.5t-28.5 -11.5h-381q-104 0 -197 39.5t-165 110.5q-70 70 -109.5 163.5t-39.5 197.5q0 105 39 198t110 164t164 110.5t198 39.5zM257 390
q-10 0 -17 7t-7 17t7 17t17 7h510q10 0 16.5 -7t6.5 -17t-6.5 -17t-16.5 -7h-510zM257 264q-10 0 -17 7t-7 17t7 17t17 7h510q10 0 16.5 -7t6.5 -17t-6.5 -17t-16.5 -7h-510zM257 138q-10 0 -17 7t-7 16.5t7 17t17 7.5h510q10 0 16.5 -7.5t6.5 -16.5q0 -11 -6.5 -17.5
t-16.5 -6.5h-510zM818 594q-60 60 -139 93.5t-167 33.5t-167 -33.5t-139 -93.5v0q-61 -60 -94.5 -139.5t-33.5 -167.5t34 -167t94 -138q60 -60 139 -94t167 -34h342v155q0 13 8 23q42 57 61 121q22 66 22 134q0 88 -33 166.5t-92 137.5z" />
    <glyph glyph-name="uniE61A" unicode="&#xe61a;" 
d="M710 447h-17v-428h-56v428h-94v-428h-56v428h-94v-428h-56v428h-36h-77v-448q0 -30 22.5 -52t54.5 -22h409q32 0 54.5 22t22.5 52v448q0 1 -9 1t-30.5 -0.5t-37.5 -0.5zM824 581h-168v46q0 19 -26 33.5t-49 14.5h-150q-24 0 -49.5 -14.5t-25.5 -33.5v-46h-169
q-15 0 -26.5 -11t-11.5 -26.5t11.5 -26.5t26.5 -11h637q16 0 27 11t11 26.5t-11 26.5t-27 11zM581 581h-150v19h150v-19z" />
    <glyph glyph-name="uniE61B" unicode="&#xe61b;" 
d="M849 -157h-681q-28 0 -48 18.5t-20 45.5v476q0 26 20 45t48 19h681q28 0 48 -19t20 -45v-476q0 -27 -20 -45.5t-48 -18.5zM508.5 288q-42.5 0 -72 -28t-29.5 -68q0 -25 13.5 -47t37.5 -35v-90q0 -21 15 -35.5t36 -14.5t36 14.5t15 35.5v90q23 13 37 35t14 47q0 40 -30 68
t-72.5 28zM508.5 701q-84.5 0 -144 -56t-59.5 -135h-103q0 119 90 202.5t217 83.5t216.5 -83.5t89.5 -202.5h-102q0 79 -60 135t-144.5 56z" />
    <glyph glyph-name="uniE61C" unicode="&#xe61c;" 
d="M776 389h-58v105q0 84 -60 137.5t-147 53.5t-147 -54t-60 -138v-104h-58q-22 0 -37 -15t-15 -36v-373q0 -21 15 -36t37 -15h530q22 0 36.5 15t14.5 36v373q0 21 -15 36t-36 15zM540 142v-82q0 -7 -7 -7h-44q-7 0 -7 7v82q-35 17 -35 56q0 26 19 45t45 19t45 -19t19 -45
q0 -39 -35 -56zM638 388h-254v113q0 45 37 77t90 32t90 -32t37 -77v-113z" />
    <glyph glyph-name="uniE61D" unicode="&#xe61d;" 
d="M522 244q-31 0 -53 -21.5t-22 -52.5q0 -22 12 -40t31 -27v-83q0 -13 9.5 -22.5t22.5 -9.5t22.5 9.5t9.5 22.5v83q19 9 31 27t12 40q0 31 -22 52.5t-53 21.5zM831 394h-640q-26 0 -45 -19t-19 -45v-427q0 -26 19 -45t45 -19h640q27 0 45.5 19t18.5 45v427q0 26 -18.5 45
t-45.5 19zM831 -54q0 -27 -8 -35t-34 -8h-555q-27 0 -35 8t-8 35v341q0 27 8 35t35 8h555q26 0 34 -8t8 -35v-341zM209 426q13 0 22.5 9.5t10.5 22.5q22 92 97 152.5t172 60.5q76 0 139.5 -37.5t100.5 -100.5q8 -19 29 -19q14 0 23 9t9 23q0 10 -5 18q-46 78 -124.5 124.5
t-171.5 46.5q-123 0 -216.5 -75.5t-117.5 -193.5v-2l-1 -1v-1v-3q0 -14 9.5 -23.5t23.5 -9.5z" />
  </font>
</defs>
</svg>
